<svg width="608" height="144" viewBox="0 0 608 144" fill="none" xmlns="http://www.w3.org/2000/svg">
<path fill-rule="evenodd" clip-rule="evenodd" d="M77.5677 11.4894C76.2727 13.1374 74.2479 14.1969 71.9876 14.1969C69.7155 14.1969 67.7025 13.1374 66.4075 11.4894C65.4657 10.2886 64.9006 8.75829 64.9006 7.11022C64.9006 4.9442 65.866 3.00183 67.3964 1.70692C68.6325 0.635682 70.2453 0 71.9876 0C73.7299 0 75.3427 0.647454 76.5788 1.70692C78.1327 3.00183 79.0981 4.9442 79.0981 7.11022C79.0981 8.75829 78.533 10.2886 77.5677 11.4894ZM18.6592 24.233L26.1622 30.4153H26.1739C34.737 21.0059 46.0327 14.4334 58.412 11.6319L56.8219 2.02148C42.134 5.23677 28.7417 13.0267 18.6592 24.233ZM18.6592 119.752L26.1644 113.57C34.73 122.98 46.029 129.552 58.412 132.353L56.8214 141.964C42.1291 138.749 28.7329 130.959 18.6592 119.752ZM87.184 141.964L85.5934 132.353C97.9882 129.54 109.287 122.98 117.829 113.57L125.346 119.752C115.273 130.959 101.876 138.737 87.184 141.964ZM76.7661 131.687C75.5064 130.51 73.823 129.803 71.9865 129.803C70.15 129.803 68.4783 130.498 67.2069 131.687C65.7942 132.982 64.8995 134.842 64.8995 136.913C64.8995 138.597 65.4764 140.151 66.4653 141.363C67.7602 142.976 69.7615 144 71.9865 144C74.2114 144 76.2128 142.976 77.5077 141.363C78.5201 140.139 79.097 138.597 79.097 136.913C79.097 134.842 78.2023 132.982 76.7778 131.687H76.7661ZM85.5934 11.6319L87.184 2.02148C101.876 5.24859 115.273 13.0267 125.346 24.233L117.829 30.4153C109.287 21.0059 97.9882 14.4453 85.5934 11.6319ZM131.519 90.6948L140.6 94.1076C145.158 79.7478 145.135 64.2306 140.518 49.8944L131.425 53.3309C135.277 65.447 135.277 78.5314 131.519 90.6948ZM130 97.75C131.836 97.75 133.52 98.4563 134.779 99.6335H134.791C136.216 100.928 137.11 102.788 137.11 104.86C137.11 106.544 136.533 108.086 135.521 109.31C134.226 110.923 132.225 111.947 130 111.947C127.775 111.947 125.774 110.923 124.479 109.31C123.49 108.098 122.913 106.544 122.913 104.86C122.913 102.788 123.808 100.928 125.22 99.6335C126.492 98.4446 128.163 97.75 130 97.75ZM134.78 33.9279C133.521 32.7507 131.837 32.0444 130.001 32.0444C128.164 32.0444 126.493 32.7389 125.221 33.9279C123.809 35.2228 122.914 37.0827 122.914 39.1546C122.914 40.838 123.491 42.3919 124.48 43.6044C125.775 45.2171 127.776 46.2413 130.001 46.2413C132.226 46.2413 134.227 45.2171 135.522 43.6044C136.535 42.3801 137.111 40.838 137.111 39.1546C137.111 37.0827 136.217 35.2228 134.792 33.9279H134.78ZM3.39961 94.1076L12.4806 90.6948C8.72338 78.5314 8.72338 65.447 12.5749 53.3309L3.48206 49.8944C-1.13501 64.2306 -1.15857 79.7478 3.39961 94.1076ZM18.7615 99.6335C17.5019 98.4563 15.8184 97.75 13.982 97.75C12.1455 97.75 10.4738 98.4446 9.2024 99.6335C7.78972 100.928 6.89502 102.788 6.89502 104.86C6.89502 106.544 7.47186 108.098 8.46074 109.31C9.7557 110.923 11.757 111.947 13.982 111.947C16.2069 111.947 18.2082 110.923 19.5032 109.31C20.5156 108.086 21.0925 106.544 21.0925 104.86C21.0925 102.788 20.1978 100.928 18.7733 99.6335H18.7615ZM13.982 32.0444C15.8184 32.0444 17.5019 32.7507 18.7615 33.9279H18.7733C20.1978 35.2228 21.0925 37.0827 21.0925 39.1546C21.0925 40.838 20.5156 42.3801 19.5032 43.6044C18.2082 45.2171 16.2069 46.2413 13.982 46.2413C11.757 46.2413 9.7557 45.2171 8.46074 43.6044C7.47186 42.3919 6.89502 40.838 6.89502 39.1546C6.89502 37.0827 7.78972 35.2228 9.2024 33.9279C10.4738 32.7389 12.1455 32.0444 13.982 32.0444ZM62.465 76.1947C62.465 76.964 62.8779 77.675 63.5504 78.0597L70.9003 82.2561C71.5846 82.6407 72.4104 82.6407 73.0711 82.2561L80.4447 78.0597C81.1054 77.675 81.5301 76.964 81.5301 76.1947V67.8019C81.5301 67.0326 81.1054 66.3216 80.4447 65.9369L73.0711 61.7405C72.4104 61.3559 71.5728 61.3559 70.9003 61.7405L63.5504 65.9369C62.8661 66.3216 62.465 67.0326 62.465 67.8019V76.1947ZM71.9865 102.022C73.823 102.022 75.5064 102.728 76.7661 103.905H76.7778C78.2023 105.2 79.097 107.06 79.097 109.132C79.097 110.815 78.5201 112.357 77.5077 113.582C76.2128 115.194 74.2114 116.218 71.9865 116.218C69.7615 116.218 67.7602 115.194 66.4653 113.582C65.4764 112.369 64.8995 110.815 64.8995 109.132C64.8995 107.06 65.7942 105.2 67.2069 103.905C68.4783 102.716 70.15 102.022 71.9865 102.022ZM77.5077 30.4326C76.2128 28.8067 74.2114 27.7817 71.9865 27.7817C69.7615 27.7817 67.7602 28.8067 66.4653 30.4326C65.4764 31.6578 64.8995 33.2012 64.8995 34.886C64.8995 36.936 65.7707 38.7975 67.1834 40.0935C68.4666 41.2599 70.1264 41.9786 71.9865 41.9786C73.8465 41.9786 75.53 41.2599 76.7896 40.0935C78.2023 38.7975 79.097 36.936 79.097 34.886C79.097 33.2012 78.5201 31.6461 77.5077 30.4326ZM86.3976 42.9104L89.7783 33.8725C121.496 48.9004 121.52 95.0787 89.7783 110.13L86.3976 101.092C109.898 89.2652 109.91 54.7492 86.3976 42.9104ZM54.2206 33.8725L57.6013 42.9104C34.0887 54.7492 34.1005 89.2652 57.6013 101.092L54.2206 110.13C22.4792 95.0787 22.5027 48.9004 54.2206 33.8725ZM456.694 114.421C434.402 114.421 420.428 96.6688 420.428 71.9056C420.428 47.1423 434.402 29.5082 456.694 29.5082C478.986 29.5082 492.96 47.1423 492.96 71.9056C492.96 96.6688 478.986 114.421 456.694 114.421ZM456.694 104.707C470.769 104.707 481.87 93.057 481.87 71.9174C481.87 50.7777 470.78 39.2459 456.694 39.2459C442.609 39.2459 431.518 50.7777 431.518 71.9174C431.518 93.057 442.609 104.707 456.694 104.707ZM215.291 30.9836H202.709L174.015 112.957H185.105L191.073 95.2053H226.593L232.673 112.957H244.409L215.291 30.9836ZM223.186 85.3614H194.391H194.38L208.677 42.6217L223.186 85.3614ZM258.181 36.863H248.471V36.8748V52.1364H239.407V60.3869H248.471V97.6971C248.471 110.362 251.032 112.959 262.022 112.959H269.059V104.366H264.149C258.604 104.366 258.181 102.784 258.181 96.4459V60.3751H269.059V52.1246H258.181V36.863ZM325.806 82.7643C325.806 104.813 311.62 114.421 298.292 114.421C284.964 114.421 270.778 104.813 270.778 82.7643C270.778 60.7157 284.964 51.1078 298.292 51.1078C311.62 51.1078 325.806 60.7157 325.806 82.7643ZM298.292 105.379C307.144 105.379 315.462 98.3682 315.462 82.7643C315.462 67.1603 307.144 60.1492 298.292 60.1492C289.44 60.1492 281.122 66.1452 281.122 82.7643C281.122 99.3833 289.44 105.379 298.292 105.379ZM332.108 112.957H341.817V79.9433C341.817 66.8298 347.251 60.0429 355.68 60.0429C366.247 60.0429 367.951 68.1872 367.951 77.5708V112.957H377.66V79.9433C377.66 66.8298 383.094 60.0429 391.523 60.0429C402.09 60.0429 403.794 68.1872 403.794 77.5708V112.957H413.503V74.5137C413.503 60.6095 408.27 51.1078 394.942 51.1078C386.835 51.1078 380.221 54.2711 375.634 61.8488C373.073 55.062 367.739 51.1078 359.099 51.1078C350.458 51.1078 345.125 55.5105 341.817 61.2823V52.1229H332.108V112.957ZM510.461 61.2629C513.769 55.5006 519.313 51.1078 529.011 51.1078C542.874 51.1078 547.896 60.6095 547.896 74.5137V112.957H538.187V77.5708C538.187 68.1872 536.694 60.0429 525.604 60.0429C516.218 60.0429 510.461 66.8298 510.461 79.9433V112.957H500.751V52.1229H510.461V61.2629ZM563.578 85.9267C563.901 99.0401 572.853 105.378 581.282 105.378C589.711 105.378 594.51 101.306 596.96 95.3103H606.981C604.42 105.709 595.245 114.42 581.271 114.42C563.132 114.42 553.111 100.622 553.111 82.6454C553.111 63.3116 565.27 51.0952 580.948 51.0952C598.552 51.0952 608.896 66.5811 607.716 85.9149H563.556L563.578 85.9267ZM563.678 77.1096H597.494C597.172 68.5169 591.303 59.9241 580.959 59.9241C572.43 59.9241 564.535 64.8932 563.678 77.1096Z" fill="#161627"/>
</svg>
