<svg width="142" height="32" viewBox="0 0 142 32" fill="none" xmlns="http://www.w3.org/2000/svg">
<path fill-rule="evenodd" clip-rule="evenodd" d="M97.1155 15.979C97.1155 21.482 100.407 25.4269 105.658 25.4269C110.91 25.4269 114.201 21.482 114.201 15.979C114.201 10.4761 110.91 6.55737 105.658 6.55737C100.407 6.55737 97.1155 10.4761 97.1155 15.979ZM111.589 15.9816C111.589 20.6793 108.974 23.2682 105.658 23.2682C102.34 23.2682 99.7279 20.6793 99.7279 15.9816C99.7279 11.2839 102.34 8.72131 105.658 8.72131C108.976 8.72131 111.589 11.2839 111.589 15.9816ZM45.8289 6.88525H48.7929L55.6519 25.1017H52.8873L51.4552 21.1567H43.0879L41.682 25.1017H39.0696L45.8289 6.88525ZM43.8696 18.9692H50.6525L47.2348 9.47148L43.867 18.9692H43.8696ZM56.6087 8.19177H58.8959V11.5832H61.4586V13.4167H58.8959V21.4324C58.8959 22.841 58.9956 23.1924 60.3018 23.1924H61.4586V25.1019H59.8008C57.212 25.1019 56.6087 24.5249 56.6087 21.7105V13.4193H54.4736V11.5859H56.6087V8.1944V8.19177ZM68.3447 25.4268C71.4844 25.4268 74.826 23.2917 74.826 18.3921C74.826 13.4924 71.4844 11.3573 68.3447 11.3573C65.205 11.3573 61.8634 13.4924 61.8634 18.3921C61.8634 23.2917 65.205 25.4268 68.3447 25.4268ZM72.3893 18.3921C72.3893 21.8596 70.43 23.4176 68.3447 23.4176C66.2595 23.4176 64.3001 22.0852 64.3001 18.3921C64.3001 14.6989 66.2595 13.3665 68.3447 13.3665C70.43 13.3665 72.3893 14.9245 72.3893 18.3921ZM78.5978 25.1016H76.3105V11.5829H78.5978V13.6183C79.3768 12.3357 80.6332 11.3573 82.6686 11.3573C84.704 11.3573 85.9604 12.236 86.5637 13.7442C87.6443 12.0603 89.2024 11.3573 91.1119 11.3573C94.2515 11.3573 95.4843 13.4688 95.4843 16.5586V25.1016H93.1971V17.238C93.1971 15.1527 92.7958 13.3429 90.3066 13.3429C88.321 13.3429 87.041 14.8511 87.041 17.7652V25.1016H84.7538V17.238C84.7538 15.1527 84.3525 13.3429 81.8633 13.3429C79.8778 13.3429 78.5978 14.8511 78.5978 17.7652V25.1016ZM122.694 11.3573C120.409 11.3573 119.103 12.3335 118.324 13.614V11.5829H116.037V25.1016H118.324V17.7652C118.324 14.8511 119.68 13.3429 121.891 13.3429C124.504 13.3429 124.855 15.1527 124.855 17.238V25.1016H127.142V16.5586C127.142 13.4688 125.959 11.3573 122.694 11.3573ZM135.007 23.4174C133.021 23.4174 130.912 22.0089 130.836 19.0948L130.831 19.0922H141.234C141.512 14.7958 139.075 11.3545 134.928 11.3545C131.235 11.3545 128.371 14.0692 128.371 18.3656C128.371 22.3604 130.732 25.4266 135.004 25.4266C138.296 25.4266 140.457 23.4909 141.061 21.1801H138.7C138.123 22.5125 136.992 23.4174 135.007 23.4174ZM138.826 17.1355H130.86C131.062 14.4207 132.922 13.3165 134.931 13.3165C137.368 13.3165 138.75 15.226 138.826 17.1355Z" fill="black"/>
<path fill-rule="evenodd" clip-rule="evenodd" d="M15.9999 3.15493C16.5022 3.15493 16.9521 2.91949 17.2399 2.55324C17.4544 2.28641 17.58 1.94632 17.58 1.58008C17.58 1.09873 17.3655 0.667087 17.0201 0.379324C16.7455 0.143882 16.3871 0 15.9999 0C15.6127 0 15.2543 0.141265 14.9796 0.379324C14.6396 0.667087 14.425 1.09873 14.425 1.58008C14.425 1.94632 14.5506 2.28641 14.7599 2.55324C15.0477 2.91949 15.495 3.15493 15.9999 3.15493ZM5.81671 6.75908L4.14941 5.3852C6.38993 2.89488 9.36594 1.16374 12.6299 0.449219L12.9832 2.5849C10.2323 3.20748 7.7222 4.66805 5.81933 6.75908H5.81671ZM5.81721 25.2383L4.14941 26.6122C6.38797 29.1025 9.36487 30.8336 12.6298 31.5481L12.9832 29.4125C10.2315 28.7899 7.72064 27.3293 5.81721 25.2383ZM19.0234 29.4125L19.3769 31.5481C22.6418 30.831 25.6187 29.1025 27.8572 26.6122L26.1868 25.2383C24.2886 27.3293 21.7778 28.7872 19.0234 29.4125ZM15.9997 28.8457C16.4078 28.8457 16.7818 29.0027 17.0618 29.2643H17.0644C17.3809 29.552 17.5797 29.9654 17.5797 30.4258C17.5797 30.7999 17.4515 31.1426 17.2266 31.4146C16.9388 31.773 16.4941 32.0006 15.9997 32.0006C15.5052 32.0006 15.0605 31.773 14.7727 31.4146C14.553 31.1452 14.4248 30.7999 14.4248 30.4258C14.4248 29.9654 14.6236 29.552 14.9375 29.2643C15.2201 29 15.5916 28.8457 15.9997 28.8457ZM19.3769 0.449219L19.0234 2.5849C21.7778 3.21011 24.2886 4.66805 26.1868 6.75908L27.8572 5.3852C25.6187 2.89488 22.6418 1.16637 19.3769 0.449219ZM31.2469 20.9132L29.2289 20.1548C30.0639 17.4518 30.0639 14.5441 29.208 11.8516L31.2286 11.0879C32.2546 14.2738 32.2598 17.7221 31.2469 20.9132ZM29.9534 22.1412C29.6734 21.8796 29.2994 21.7227 28.8913 21.7227C28.4832 21.7227 28.1117 21.877 27.8291 22.1412C27.5152 22.429 27.3164 22.8423 27.3164 23.3027C27.3164 23.6768 27.4446 24.0221 27.6643 24.2916C27.9521 24.65 28.3968 24.8776 28.8913 24.8776C29.3857 24.8776 29.8304 24.65 30.1182 24.2916C30.3432 24.0195 30.4713 23.6768 30.4713 23.3027C30.4713 22.8423 30.2725 22.429 29.956 22.1412H29.9534ZM28.8915 7.12109C29.2996 7.12109 29.6737 7.27806 29.9536 7.53966H29.9562C30.2728 7.82742 30.4716 8.24075 30.4716 8.70117C30.4716 9.07527 30.3434 9.41797 30.1184 9.69003C29.8307 10.0484 29.3859 10.276 28.8915 10.276C28.3971 10.276 27.9523 10.0484 27.6646 9.69003C27.4448 9.42058 27.3167 9.07527 27.3167 8.70117C27.3167 8.24075 27.5155 7.82742 27.8294 7.53966C28.1119 7.27544 28.4834 7.12109 28.8915 7.12109ZM2.77636 20.1548L0.758386 20.9132C-0.254526 17.7221 -0.249291 14.2738 0.776707 11.0879L2.7973 11.8516C1.94142 14.5441 1.94142 17.4518 2.77636 20.1548ZM3.11 21.7227C3.51811 21.7227 3.8922 21.8796 4.17211 22.1412H4.17473C4.49127 22.429 4.69009 22.8423 4.69009 23.3027C4.69009 23.6768 4.5619 24.0195 4.33692 24.2916C4.04916 24.65 3.60443 24.8776 3.11 24.8776C2.61558 24.8776 2.17085 24.65 1.88309 24.2916C1.66334 24.0221 1.53516 23.6768 1.53516 23.3027C1.53516 22.8423 1.73397 22.429 2.0479 22.1412C2.33043 21.877 2.7019 21.7227 3.11 21.7227ZM4.17199 7.53966C3.89208 7.27806 3.51798 7.12109 3.10988 7.12109C2.70178 7.12109 2.33031 7.27544 2.04778 7.53966C1.73385 7.82742 1.53503 8.24075 1.53503 8.70117C1.53503 9.07527 1.66322 9.42058 1.88297 9.69003C2.17073 10.0484 2.61545 10.276 3.10988 10.276C3.60431 10.276 4.04904 10.0484 4.3368 9.69003C4.56178 9.41797 4.68996 9.07527 4.68996 8.70117C4.68996 8.24075 4.49115 7.82742 4.17461 7.53966H4.17199ZM14.125 17.3469C13.9755 17.2614 13.8838 17.1034 13.8838 16.9325V15.0674C13.8838 14.8964 13.9729 14.7384 14.125 14.6529L15.7583 13.7204C15.9077 13.6349 16.0939 13.6349 16.2407 13.7204L17.8792 14.6529C18.026 14.7384 18.1204 14.8964 18.1204 15.0674V16.9325C18.1204 17.1034 18.026 17.2614 17.8792 17.3469L16.2407 18.2795C16.0939 18.3649 15.9103 18.3649 15.7583 18.2795L14.125 17.3469ZM17.0618 23.0904C16.7818 22.8288 16.4078 22.6719 15.9997 22.6719C15.5916 22.6719 15.2201 22.8262 14.9375 23.0904C14.6236 23.3782 14.4248 23.7915 14.4248 24.252C14.4248 24.626 14.553 24.9714 14.7727 25.2408C15.0605 25.5992 15.5052 25.8268 15.9997 25.8268C16.4941 25.8268 16.9388 25.5992 17.2266 25.2408C17.4515 24.9687 17.5797 24.626 17.5797 24.252C17.5797 23.7915 17.3809 23.3782 17.0644 23.0904H17.0618ZM15.9997 6.17383C16.4941 6.17383 16.9388 6.40161 17.2266 6.76292C17.4515 7.0326 17.5797 7.3782 17.5797 7.7526C17.5797 8.20817 17.3809 8.62184 17.067 8.90985C16.7871 9.16905 16.413 9.32876 15.9997 9.32876C15.5863 9.32876 15.2175 9.16905 14.9323 8.90985C14.6184 8.62184 14.4248 8.20817 14.4248 7.7526C14.4248 7.3782 14.553 7.03522 14.7727 6.76292C15.0605 6.40161 15.5052 6.17383 15.9997 6.17383ZM19.9534 7.52734L19.2021 9.53582C24.4271 12.1667 24.4245 19.8371 19.2021 22.4654L19.9534 24.4738C27.0069 21.129 27.0017 10.867 19.9534 7.52734ZM12.8031 9.53582L12.0518 7.52734C5.00356 10.867 4.99834 21.129 12.0518 24.4738L12.8031 22.4654C7.5808 19.8371 7.57819 12.1667 12.8031 9.53582Z" fill="black"/>
</svg>
