<svg width="264" height="264" viewBox="0 0 264 264" fill="none" xmlns="http://www.w3.org/2000/svg">
<path fill-rule="evenodd" clip-rule="evenodd" d="M131.976 26.0284C136.12 26.0284 139.832 24.086 142.206 21.0645C143.976 18.8631 145.012 16.0573 145.012 13.0358C145.012 9.06462 143.242 5.50352 140.393 3.12945C138.127 1.18703 135.17 0 131.976 0C128.782 0 125.825 1.16545 123.559 3.12945C120.753 5.50352 118.984 9.06462 118.984 13.0358C118.984 16.0573 120.02 18.8631 121.746 21.0645C124.12 24.086 127.811 26.0284 131.976 26.0284ZM47.9642 55.761L34.2089 44.4269C52.6933 23.8823 77.2456 9.6008 104.173 3.70615L107.088 21.3251C84.3932 26.4612 63.6846 38.5105 47.9858 55.761H47.9642ZM47.9683 208.21L34.2089 219.544C52.6772 240.089 77.2368 254.37 104.172 260.265L107.088 242.646C84.3865 237.51 63.6717 225.461 47.9683 208.21ZM156.921 242.646L159.837 260.265C186.773 254.349 211.332 240.089 229.8 219.544L216.019 208.21C200.359 225.461 179.644 237.488 156.921 242.646ZM131.974 237.971C135.341 237.971 138.427 239.265 140.737 241.424H140.758C143.37 243.798 145.01 247.208 145.01 251.006C145.01 254.093 143.953 256.92 142.096 259.164C139.722 262.121 136.053 263.999 131.974 263.999C127.895 263.999 124.226 262.121 121.852 259.164C120.039 256.941 118.982 254.093 118.982 251.006C118.982 247.208 120.622 243.798 123.212 241.424C125.543 239.244 128.607 237.971 131.974 237.971ZM159.837 3.70615L156.921 21.3251C179.644 26.4829 200.359 38.5105 216.019 55.761L229.8 44.4269C211.332 23.8823 186.773 9.62247 159.837 3.70615ZM257.766 172.53L241.117 166.273C248.005 143.973 248.005 119.985 240.944 97.7728L257.614 91.4727C266.079 117.756 266.122 146.203 257.766 172.53ZM247.094 182.66C244.784 180.502 241.698 179.207 238.331 179.207C234.964 179.207 231.9 180.48 229.569 182.66C226.979 185.034 225.339 188.444 225.339 192.243C225.339 195.329 226.396 198.178 228.209 200.401C230.583 203.358 234.252 205.235 238.331 205.235C242.41 205.235 246.079 203.358 248.453 200.401C250.309 198.156 251.367 195.329 251.367 192.243C251.367 188.444 249.727 185.034 247.115 182.66H247.094ZM238.332 58.7479C241.699 58.7479 244.785 60.0428 247.095 62.2011H247.116C249.728 64.5752 251.368 67.9852 251.368 71.7837C251.368 74.87 250.311 77.6973 248.454 79.9418C246.08 82.8986 242.411 84.7763 238.332 84.7763C234.253 84.7763 230.584 82.8986 228.21 79.9418C226.397 77.7189 225.34 74.87 225.34 71.7837C225.34 67.9852 226.98 64.5752 229.57 62.2011C231.901 60.0213 234.965 58.7479 238.332 58.7479ZM22.881 166.273L6.23257 172.53C-2.12403 146.203 -2.08084 117.756 6.38373 91.4727L23.0537 97.7728C15.9927 119.985 15.9927 143.973 22.881 166.273ZM25.6336 179.207C29.0005 179.207 32.0868 180.502 34.3961 182.66H34.4177C37.0291 185.034 38.6694 188.444 38.6694 192.243C38.6694 195.329 37.6119 198.156 35.7558 200.401C33.3817 203.358 29.7127 205.235 25.6336 205.235C21.5545 205.235 17.8855 203.358 15.5114 200.401C13.6985 198.178 12.641 195.329 12.641 192.243C12.641 188.444 14.2812 185.034 16.8711 182.66C19.202 180.48 22.2667 179.207 25.6336 179.207ZM34.3951 62.2011C32.0858 60.0428 28.9995 58.7479 25.6326 58.7479C22.2657 58.7479 19.201 60.0213 16.8701 62.2011C14.2802 64.5752 12.64 67.9852 12.64 71.7837C12.64 74.87 13.6975 77.7189 15.5104 79.9418C17.8845 82.8986 21.5535 84.7763 25.6326 84.7763C29.7117 84.7763 33.3807 82.8986 35.7548 79.9418C37.6109 77.6973 38.6684 74.87 38.6684 71.7837C38.6684 67.9852 37.0281 64.5752 34.4167 62.2011H34.3951ZM116.507 143.108C115.274 142.403 114.517 141.099 114.517 139.689V124.302C114.517 122.892 115.253 121.588 116.507 120.883L129.982 113.19C131.215 112.485 132.751 112.485 133.962 113.19L147.48 120.883C148.691 121.588 149.47 122.892 149.47 124.302V139.689C149.47 141.099 148.691 142.403 147.48 143.108L133.962 150.802C132.751 151.507 131.237 151.507 129.982 150.802L116.507 143.108ZM140.737 190.491C138.427 188.333 135.341 187.038 131.974 187.038C128.607 187.038 125.543 188.311 123.212 190.491C120.622 192.865 118.982 196.275 118.982 200.074C118.982 203.16 120.039 206.009 121.852 208.232C124.226 211.189 127.895 213.066 131.974 213.066C136.053 213.066 139.722 211.189 142.096 208.232C143.953 205.987 145.01 203.16 145.01 200.074C145.01 196.275 143.37 192.865 140.758 190.491H140.737ZM131.974 50.9328C136.053 50.9328 139.722 52.812 142.096 55.7928C143.953 58.0177 145.01 60.8689 145.01 63.9578C145.01 67.7162 143.37 71.1291 140.78 73.5051C138.471 75.6436 135.384 76.9612 131.974 76.9612C128.564 76.9612 125.521 75.6436 123.169 73.5051C120.579 71.1291 118.982 67.7162 118.982 63.9578C118.982 60.8689 120.039 58.0393 121.852 55.7928C124.226 52.812 127.895 50.9328 131.974 50.9328ZM164.593 62.0989L158.395 78.6684C201.501 100.373 201.48 163.651 158.395 185.334L164.593 201.904C222.785 174.309 222.742 89.6499 164.593 62.0989ZM105.603 78.6684L99.4046 62.0989C41.2556 89.6499 41.2126 174.309 99.4046 201.904L105.603 185.334C62.5181 163.651 62.4966 100.373 105.603 78.6684Z" fill="white"/>
</svg>
