<svg width="32" height="32" viewBox="0 0 32 32" fill="none" xmlns="http://www.w3.org/2000/svg">
<path fill-rule="evenodd" clip-rule="evenodd" d="M15.997 3.15493C16.4992 3.15493 16.9492 2.91949 17.237 2.55324C17.4515 2.28641 17.577 1.94632 17.577 1.58008C17.577 1.09873 17.3625 0.667087 17.0172 0.379324C16.7425 0.143882 16.3841 0 15.997 0C15.6098 0 15.2514 0.141265 14.9767 0.379324C14.6366 0.667087 14.4221 1.09873 14.4221 1.58008C14.4221 1.94632 14.5477 2.28641 14.757 2.55324C15.0447 2.91949 15.4921 3.15493 15.997 3.15493ZM5.81378 6.75908L4.14648 5.3852C6.387 2.89488 9.36301 1.16374 12.6269 0.449219L12.9803 2.5849C10.2294 3.20748 7.71927 4.66805 5.8164 6.75908H5.81378ZM5.81428 25.2383L4.14648 26.6122C6.38504 29.1025 9.36194 30.8336 12.6268 31.5481L12.9803 29.4125C10.2286 28.7899 7.71771 27.3293 5.81428 25.2383ZM19.0205 29.4125L19.374 31.5481C22.6389 30.831 25.6158 29.1025 27.8543 26.6122L26.1839 25.2383C24.2857 27.3293 21.7749 28.7872 19.0205 29.4125ZM15.9967 28.8457C16.4048 28.8457 16.7789 29.0027 17.0588 29.2643H17.0614C17.378 29.552 17.5768 29.9654 17.5768 30.4258C17.5768 30.7999 17.4486 31.1426 17.2236 31.4146C16.9359 31.773 16.4912 32.0006 15.9967 32.0006C15.5023 32.0006 15.0576 31.773 14.7698 31.4146C14.5501 31.1452 14.4219 30.7999 14.4219 30.4258C14.4219 29.9654 14.6207 29.552 14.9346 29.2643C15.2171 29 15.5886 28.8457 15.9967 28.8457ZM19.374 0.449219L19.0205 2.5849C21.7749 3.21011 24.2857 4.66805 26.1839 6.75908L27.8543 5.3852C25.6158 2.89488 22.6389 1.16637 19.374 0.449219ZM31.244 20.9132L29.226 20.1548C30.0609 17.4518 30.0609 14.5441 29.2051 11.8516L31.2257 11.0879C32.2517 14.2738 32.2569 17.7221 31.244 20.9132ZM29.9504 22.1412C29.6705 21.8796 29.2964 21.7227 28.8883 21.7227C28.4802 21.7227 28.1087 21.877 27.8262 22.1412C27.5123 22.429 27.3135 22.8423 27.3135 23.3027C27.3135 23.6768 27.4417 24.0221 27.6614 24.2916C27.9492 24.65 28.3939 24.8776 28.8883 24.8776C29.3828 24.8776 29.8275 24.65 30.1152 24.2916C30.3402 24.0195 30.4684 23.6768 30.4684 23.3027C30.4684 22.8423 30.2696 22.429 29.953 22.1412H29.9504ZM28.8886 7.12109C29.2967 7.12109 29.6708 7.27806 29.9507 7.53966H29.9533C30.2698 7.82742 30.4687 8.24075 30.4687 8.70117C30.4687 9.07527 30.3405 9.41797 30.1155 9.69003C29.8277 10.0484 29.383 10.276 28.8886 10.276C28.3941 10.276 27.9494 10.0484 27.6617 9.69003C27.4419 9.42058 27.3137 9.07527 27.3137 8.70117C27.3137 8.24075 27.5125 7.82742 27.8265 7.53966C28.109 7.27544 28.4805 7.12109 28.8886 7.12109ZM2.77343 20.1548L0.755456 20.9132C-0.257456 17.7221 -0.252221 14.2738 0.773777 11.0879L2.79437 11.8516C1.93849 14.5441 1.9385 17.4518 2.77343 20.1548ZM3.10708 21.7227C3.51518 21.7227 3.88927 21.8796 4.16918 22.1412H4.1718C4.48834 22.429 4.68716 22.8423 4.68716 23.3027C4.68716 23.6768 4.55897 24.0195 4.33399 24.2916C4.04623 24.65 3.6015 24.8776 3.10708 24.8776C2.61265 24.8776 2.16792 24.65 1.88016 24.2916C1.66041 24.0221 1.53223 23.6768 1.53223 23.3027C1.53223 22.8423 1.73104 22.429 2.04497 22.1412C2.3275 21.877 2.69897 21.7227 3.10708 21.7227ZM4.16906 7.53966C3.88915 7.27806 3.51505 7.12109 3.10695 7.12109C2.69885 7.12109 2.32738 7.27544 2.04485 7.53966C1.73092 7.82742 1.5321 8.24075 1.5321 8.70117C1.5321 9.07527 1.66029 9.42058 1.88004 9.69003C2.1678 10.0484 2.61252 10.276 3.10695 10.276C3.60138 10.276 4.04611 10.0484 4.33387 9.69003C4.55885 9.41797 4.68703 9.07527 4.68703 8.70117C4.68703 8.24075 4.48822 7.82742 4.17168 7.53966H4.16906ZM14.1221 17.3469C13.9726 17.2614 13.8809 17.1034 13.8809 16.9325V15.0674C13.8809 14.8964 13.97 14.7384 14.1221 14.6529L15.7554 13.7204C15.9048 13.6349 16.0909 13.6349 16.2377 13.7204L17.8763 14.6529C18.0231 14.7384 18.1175 14.8964 18.1175 15.0674V16.9325C18.1175 17.1034 18.0231 17.2614 17.8763 17.3469L16.2377 18.2795C16.0909 18.3649 15.9074 18.3649 15.7554 18.2795L14.1221 17.3469ZM17.0588 23.0904C16.7789 22.8288 16.4048 22.6719 15.9967 22.6719C15.5886 22.6719 15.2171 22.8262 14.9346 23.0904C14.6207 23.3782 14.4219 23.7915 14.4219 24.252C14.4219 24.626 14.5501 24.9714 14.7698 25.2408C15.0576 25.5992 15.5023 25.8268 15.9967 25.8268C16.4912 25.8268 16.9359 25.5992 17.2236 25.2408C17.4486 24.9687 17.5768 24.626 17.5768 24.252C17.5768 23.7915 17.378 23.3782 17.0614 23.0904H17.0588ZM15.9967 6.17383C16.4912 6.17383 16.9359 6.40161 17.2236 6.76292C17.4486 7.0326 17.5768 7.3782 17.5768 7.7526C17.5768 8.20817 17.378 8.62184 17.0641 8.90985C16.7841 9.16905 16.4101 9.32876 15.9967 9.32876C15.5834 9.32876 15.2145 9.16905 14.9294 8.90985C14.6155 8.62184 14.4219 8.20817 14.4219 7.7526C14.4219 7.3782 14.5501 7.03522 14.7698 6.76292C15.0576 6.40161 15.5023 6.17383 15.9967 6.17383ZM19.9505 7.52734L19.1992 9.53582C24.4241 12.1667 24.4215 19.8371 19.1992 22.4654L19.9505 24.4738C27.004 21.129 26.9988 10.867 19.9505 7.52734ZM12.8002 9.53582L12.0489 7.52734C5.00063 10.867 4.99541 21.129 12.0489 24.4738L12.8002 22.4654C7.57787 19.8371 7.57526 12.1667 12.8002 9.53582Z" fill="white"/>
</svg>
