<svg width="400" height="400" viewBox="0 0 400 400" fill="none" xmlns="http://www.w3.org/2000/svg">
<rect width="400" height="400" fill="#4A4E69"/>
<path fill-rule="evenodd" clip-rule="evenodd" d="M199.976 94.0284C204.12 94.0284 207.832 92.086 210.206 89.0645C211.976 86.8631 213.012 84.0573 213.012 81.0358C213.012 77.0646 211.242 73.5035 208.393 71.1295C206.127 69.187 203.17 68 199.976 68C196.782 68 193.825 69.1655 191.559 71.1295C188.753 73.5035 186.984 77.0646 186.984 81.0358C186.984 84.0573 188.02 86.8631 189.746 89.0645C192.12 92.086 195.811 94.0284 199.976 94.0284ZM115.964 123.761L102.209 112.427C120.693 91.8823 145.246 77.6008 172.173 71.7062L175.088 89.3251C152.393 94.4612 131.685 106.511 115.986 123.761H115.964ZM115.968 276.21L102.209 287.544C120.677 308.089 145.237 322.37 172.172 328.265L175.088 310.646C152.386 305.51 131.672 293.461 115.968 276.21ZM224.921 310.646L227.837 328.265C254.773 322.349 279.332 308.089 297.8 287.544L284.019 276.21C268.359 293.461 247.644 305.488 224.921 310.646ZM199.974 305.971C203.341 305.971 206.427 307.265 208.737 309.424H208.758C211.37 311.798 213.01 315.208 213.01 319.006C213.01 322.093 211.953 324.92 210.096 327.164C207.722 330.121 204.053 331.999 199.974 331.999C195.895 331.999 192.226 330.121 189.852 327.164C188.039 324.941 186.982 322.093 186.982 319.006C186.982 315.208 188.622 311.798 191.212 309.424C193.543 307.244 196.607 305.971 199.974 305.971ZM227.837 71.7062L224.921 89.3251C247.644 94.4829 268.359 106.511 284.019 123.761L297.8 112.427C279.332 91.8823 254.773 77.6225 227.837 71.7062ZM325.766 240.53L309.117 234.273C316.005 211.973 316.005 187.985 308.944 165.773L325.614 159.473C334.079 185.756 334.122 214.203 325.766 240.53ZM315.094 250.66C312.784 248.502 309.698 247.207 306.331 247.207C302.964 247.207 299.9 248.48 297.569 250.66C294.979 253.034 293.339 256.444 293.339 260.243C293.339 263.329 294.396 266.178 296.209 268.401C298.583 271.358 302.252 273.235 306.331 273.235C310.41 273.235 314.079 271.358 316.453 268.401C318.309 266.156 319.367 263.329 319.367 260.243C319.367 256.444 317.727 253.034 315.115 250.66H315.094ZM306.332 126.748C309.699 126.748 312.785 128.043 315.095 130.201H315.116C317.728 132.575 319.368 135.985 319.368 139.784C319.368 142.87 318.311 145.697 316.454 147.942C314.08 150.899 310.411 152.776 306.332 152.776C302.253 152.776 298.584 150.899 296.21 147.942C294.397 145.719 293.34 142.87 293.34 139.784C293.34 135.985 294.98 132.575 297.57 130.201C299.901 128.021 302.965 126.748 306.332 126.748ZM90.881 234.273L74.2326 240.53C65.876 214.203 65.9192 185.756 74.3837 159.473L91.0537 165.773C83.9927 187.985 83.9927 211.973 90.881 234.273ZM93.6336 247.207C97.0005 247.207 100.087 248.502 102.396 250.66H102.418C105.029 253.034 106.669 256.444 106.669 260.243C106.669 263.329 105.612 266.156 103.756 268.401C101.382 271.358 97.7127 273.235 93.6336 273.235C89.5545 273.235 85.8855 271.358 83.5114 268.401C81.6985 266.178 80.641 263.329 80.641 260.243C80.641 256.444 82.2812 253.034 84.8711 250.66C87.202 248.48 90.2667 247.207 93.6336 247.207ZM102.395 130.201C100.086 128.043 96.9995 126.748 93.6326 126.748C90.2657 126.748 87.201 128.021 84.8701 130.201C82.2802 132.575 80.64 135.985 80.64 139.784C80.64 142.87 81.6975 145.719 83.5104 147.942C85.8845 150.899 89.5535 152.776 93.6326 152.776C97.7117 152.776 101.381 150.899 103.755 147.942C105.611 145.697 106.668 142.87 106.668 139.784C106.668 135.985 105.028 132.575 102.417 130.201H102.395ZM184.507 211.108C183.274 210.403 182.517 209.099 182.517 207.689V192.302C182.517 190.892 183.253 189.588 184.507 188.883L197.982 181.19C199.215 180.485 200.751 180.485 201.962 181.19L215.48 188.883C216.691 189.588 217.47 190.892 217.47 192.302V207.689C217.47 209.099 216.691 210.403 215.48 211.108L201.962 218.802C200.751 219.507 199.237 219.507 197.982 218.802L184.507 211.108ZM208.737 258.491C206.427 256.333 203.341 255.038 199.974 255.038C196.607 255.038 193.543 256.311 191.212 258.491C188.622 260.865 186.982 264.275 186.982 268.074C186.982 271.16 188.039 274.009 189.852 276.232C192.226 279.189 195.895 281.066 199.974 281.066C204.053 281.066 207.722 279.189 210.096 276.232C211.953 273.987 213.01 271.16 213.01 268.074C213.01 264.275 211.37 260.865 208.758 258.491H208.737ZM199.974 118.933C204.053 118.933 207.722 120.812 210.096 123.793C211.953 126.018 213.01 128.869 213.01 131.958C213.01 135.716 211.37 139.129 208.78 141.505C206.471 143.644 203.384 144.961 199.974 144.961C196.564 144.961 193.521 143.644 191.169 141.505C188.579 139.129 186.982 135.716 186.982 131.958C186.982 128.869 188.039 126.039 189.852 123.793C192.226 120.812 195.895 118.933 199.974 118.933ZM232.593 130.099L226.395 146.668C269.501 168.373 269.48 231.651 226.395 253.334L232.593 269.904C290.785 242.309 290.742 157.65 232.593 130.099ZM173.603 146.668L167.405 130.099C109.256 157.65 109.213 242.309 167.405 269.904L173.603 253.334C130.518 231.651 130.497 168.373 173.603 146.668Z" fill="white"/>
</svg>
