<svg width="960" height="540" viewBox="0 0 960 540" fill="none" xmlns="http://www.w3.org/2000/svg">
<rect width="960" height="540" fill="#4A4E69"/>
<path fill-rule="evenodd" clip-rule="evenodd" d="M253.568 209.489C252.273 211.137 250.248 212.197 247.988 212.197C245.716 212.197 243.702 211.137 242.407 209.489C241.466 208.289 240.901 206.758 240.901 205.11C240.901 202.944 241.866 201.002 243.396 199.707C244.632 198.636 246.245 198 247.988 198C249.73 198 251.343 198.647 252.579 199.707C254.133 201.002 255.098 202.944 255.098 205.11C255.098 206.758 254.533 208.289 253.568 209.489ZM194.659 222.233L202.162 228.415H202.174C210.737 219.006 222.033 212.433 234.412 209.632L232.822 200.021C218.134 203.237 204.742 211.027 194.659 222.233ZM194.659 317.752L202.164 311.57C210.73 320.98 222.029 327.552 234.412 330.353L232.821 339.964C218.129 336.749 204.733 328.959 194.659 317.752ZM263.184 339.964L261.593 330.353C273.988 327.54 285.287 320.98 293.829 311.57L301.346 317.752C291.273 328.959 277.876 336.737 263.184 339.964ZM252.766 329.687C251.506 328.51 249.823 327.803 247.986 327.803C246.15 327.803 244.478 328.498 243.207 329.687C241.794 330.982 240.9 332.842 240.9 334.913C240.9 336.597 241.476 338.151 242.465 339.363C243.76 340.976 245.762 342 247.986 342C250.211 342 252.213 340.976 253.508 339.363C254.52 338.139 255.097 336.597 255.097 334.913C255.097 332.842 254.202 330.982 252.778 329.687H252.766ZM261.593 209.632L263.184 200.021C277.876 203.249 291.273 211.027 301.346 222.233L293.829 228.415C285.287 219.006 273.988 212.445 261.593 209.632ZM307.519 288.695L316.6 292.108C321.158 277.748 321.135 262.231 316.518 247.894L307.425 251.331C311.277 263.447 311.277 276.531 307.519 288.695ZM306 295.75C307.836 295.75 309.52 296.456 310.779 297.634H310.791C312.216 298.928 313.11 300.788 313.11 302.86C313.11 304.544 312.533 306.086 311.521 307.31C310.226 308.923 308.225 309.947 306 309.947C303.775 309.947 301.774 308.923 300.479 307.31C299.49 306.098 298.913 304.544 298.913 302.86C298.913 300.788 299.808 298.928 301.22 297.634C302.492 296.445 304.163 295.75 306 295.75ZM310.78 231.928C309.521 230.751 307.837 230.044 306.001 230.044C304.164 230.044 302.493 230.739 301.221 231.928C299.809 233.223 298.914 235.083 298.914 237.155C298.914 238.838 299.491 240.392 300.48 241.604C301.775 243.217 303.776 244.241 306.001 244.241C308.226 244.241 310.227 243.217 311.522 241.604C312.535 240.38 313.111 238.838 313.111 237.155C313.111 235.083 312.217 233.223 310.792 231.928H310.78ZM179.4 292.108L188.481 288.695C184.723 276.531 184.723 263.447 188.575 251.331L179.482 247.894C174.865 262.231 174.841 277.748 179.4 292.108ZM194.762 297.634C193.502 296.456 191.818 295.75 189.982 295.75C188.145 295.75 186.474 296.445 185.202 297.634C183.79 298.928 182.895 300.788 182.895 302.86C182.895 304.544 183.472 306.098 184.461 307.31C185.756 308.923 187.757 309.947 189.982 309.947C192.207 309.947 194.208 308.923 195.503 307.31C196.516 306.086 197.092 304.544 197.092 302.86C197.092 300.788 196.198 298.928 194.773 297.634H194.762ZM189.982 230.044C191.818 230.044 193.502 230.751 194.762 231.928H194.773C196.198 233.223 197.092 235.083 197.092 237.155C197.092 238.838 196.516 240.38 195.503 241.604C194.208 243.217 192.207 244.241 189.982 244.241C187.757 244.241 185.756 243.217 184.461 241.604C183.472 240.392 182.895 238.838 182.895 237.155C182.895 235.083 183.79 233.223 185.202 231.928C186.474 230.739 188.145 230.044 189.982 230.044ZM238.465 274.195C238.465 274.964 238.878 275.675 239.55 276.06L246.9 280.256C247.585 280.641 248.41 280.641 249.071 280.256L256.445 276.06C257.105 275.675 257.53 274.964 257.53 274.195V265.802C257.53 265.033 257.105 264.322 256.445 263.937L249.071 259.741C248.41 259.356 247.573 259.356 246.9 259.741L239.55 263.937C238.866 264.322 238.465 265.033 238.465 265.802V274.195ZM247.986 300.022C249.823 300.022 251.506 300.728 252.766 301.905H252.778C254.202 303.2 255.097 305.06 255.097 307.132C255.097 308.815 254.52 310.357 253.508 311.582C252.213 313.194 250.211 314.218 247.986 314.218C245.762 314.218 243.76 313.194 242.465 311.582C241.476 310.369 240.9 308.815 240.9 307.132C240.9 305.06 241.794 303.2 243.207 301.905C244.478 300.716 246.15 300.022 247.986 300.022ZM253.508 228.433C252.213 226.807 250.211 225.782 247.986 225.782C245.762 225.782 243.76 226.807 242.465 228.433C241.476 229.658 240.9 231.201 240.9 232.886C240.9 234.936 241.771 236.798 243.183 238.094C244.467 239.26 246.126 239.979 247.986 239.979C249.847 239.979 251.53 239.26 252.79 238.094C254.202 236.798 255.097 234.936 255.097 232.886C255.097 231.201 254.52 229.646 253.508 228.433ZM262.398 240.91L265.778 231.872C297.496 246.9 297.52 293.079 265.778 308.13L262.398 299.092C285.898 287.265 285.91 252.749 262.398 240.91ZM230.221 231.872L233.601 240.91C210.089 252.749 210.1 287.265 233.601 299.092L230.221 308.13C198.479 293.079 198.503 246.9 230.221 231.872ZM632.694 312.421C610.402 312.421 596.428 294.669 596.428 269.906C596.428 245.142 610.402 227.508 632.694 227.508C654.986 227.508 668.96 245.142 668.96 269.906C668.96 294.669 654.986 312.421 632.694 312.421ZM632.694 302.707C646.769 302.707 657.87 291.057 657.87 269.917C657.87 248.778 646.78 237.246 632.694 237.246C618.609 237.246 607.518 248.778 607.518 269.917C607.518 291.057 618.609 302.707 632.694 302.707ZM391.291 228.984H378.709L350.015 310.957H361.105L367.073 293.205H402.593L408.673 310.957H420.409L391.291 228.984ZM399.186 283.361H370.391H370.38L384.677 240.622L399.186 283.361ZM434.181 234.863H424.471V234.875V250.136H415.407V258.387H424.471V295.697C424.471 308.362 427.032 310.959 438.022 310.959H445.059V302.366H440.149C434.604 302.366 434.181 300.784 434.181 294.446V258.375H445.059V250.125H434.181V234.863ZM501.806 280.764C501.806 302.813 487.62 312.421 474.292 312.421C460.964 312.421 446.778 302.813 446.778 280.764C446.778 258.716 460.964 249.108 474.292 249.108C487.62 249.108 501.806 258.716 501.806 280.764ZM474.292 303.379C483.144 303.379 491.462 296.368 491.462 280.764C491.462 265.16 483.144 258.149 474.292 258.149C465.44 258.149 457.122 264.145 457.122 280.764C457.122 297.383 465.44 303.379 474.292 303.379ZM508.108 310.957H517.817V277.943C517.817 264.83 523.251 258.043 531.68 258.043C542.247 258.043 543.951 266.187 543.951 275.571V310.957H553.66V277.943C553.66 264.83 559.094 258.043 567.523 258.043C578.09 258.043 579.794 266.187 579.794 275.571V310.957H589.503V272.514C589.503 258.609 584.27 249.108 570.942 249.108C562.835 249.108 556.221 252.271 551.634 259.849C549.073 253.062 543.739 249.108 535.099 249.108C526.458 249.108 521.125 253.51 517.817 259.282V250.123H508.108V310.957ZM686.461 259.263C689.769 253.501 695.313 249.108 705.011 249.108C718.874 249.108 723.896 258.609 723.896 272.514V310.957H714.187V275.571C714.187 266.187 712.694 258.043 701.604 258.043C692.218 258.043 686.461 264.83 686.461 277.943V310.957H676.751V250.123H686.461V259.263ZM739.578 283.927C739.901 297.04 748.853 303.378 757.282 303.378C765.711 303.378 770.51 299.306 772.96 293.31H782.981C780.42 303.709 771.245 312.42 757.271 312.42C739.132 312.42 729.111 298.622 729.111 280.645C729.111 261.312 741.27 249.095 756.948 249.095C774.552 249.095 784.896 264.581 783.716 283.915H739.556L739.578 283.927ZM739.678 275.11H773.494C773.172 266.517 767.303 257.924 756.959 257.924C748.43 257.924 740.535 262.893 739.678 275.11Z" fill="white"/>
</svg>
